<?xml version="1.0" encoding="UTF-8"?>
<!DOCTYPE svg PUBLIC "-//W3C//DTD SVG 1.1//EN" "http://www.w3.org/Graphics/SVG/1.1/DTD/svg11.dtd">
<!-- Creator: CorelDRAW 2017 -->
<svg xmlns="http://www.w3.org/2000/svg" xml:space="preserve" width="1000px" height="200px" version="1.1" style="shape-rendering:geometricPrecision; text-rendering:geometricPrecision; image-rendering:optimizeQuality; fill-rule:evenodd; clip-rule:evenodd"
viewBox="0 0 1000 200"
 xmlns:xlink="http://www.w3.org/1999/xlink">
 <defs>
  <style type="text/css">
   <![CDATA[
    .str0 {stroke:#003748;stroke-width:1.333}
    .fil0 {fill:none}
    .fil6 {fill:none;fill-rule:nonzero}
    .fil7 {fill:#003748}
    .fil4 {fill:#003748}
    .fil5 {fill:#003748;fill-rule:nonzero}
    .fil8 {fill:url(#id1)}
    .fil1 {fill:url(#id2)}
    .fil3 {fill:url(#id3)}
    .fil2 {fill:url(#id4)}
    .fil9 {fill:url(#id5)}
    .fil10 {fill:url(#id6)}
   ]]>
  </style>
   <clipPath id="id0">
    <path d="M0 0l1000 0 0 200 -1000 0 0 -200z"/>
   </clipPath>
  <linearGradient id="id1" gradientUnits="userSpaceOnUse" x1="220.137" y1="93.044" x2="34.425" y2="93.044">
   <stop offset="0" style="stop-opacity:1; stop-color:#00A94F"/>
   <stop offset="1" style="stop-opacity:1; stop-color:#84C441"/>
   <stop offset="1" style="stop-opacity:1; stop-color:#84C441"/>
  </linearGradient>
  <linearGradient id="id2" gradientUnits="userSpaceOnUse" xlink:href="#id1" x1="319.378" y1="396.738" x2="174.081" y2="396.738">
  </linearGradient>
  <linearGradient id="id3" gradientUnits="userSpaceOnUse" xlink:href="#id1" x1="319.388" y1="374.951" x2="174.082" y2="374.951">
  </linearGradient>
  <linearGradient id="id4" gradientUnits="userSpaceOnUse" xlink:href="#id1" x1="319.388" y1="419.056" x2="174.082" y2="419.056">
  </linearGradient>
  <linearGradient id="id5" gradientUnits="userSpaceOnUse" xlink:href="#id1" x1="220.149" y1="121.57" x2="34.429" y2="121.57">
  </linearGradient>
  <linearGradient id="id6" gradientUnits="userSpaceOnUse" xlink:href="#id1" x1="220.152" y1="65.197" x2="34.422" y2="65.197">
  </linearGradient>
 </defs>
 <g id="Camada_x0020_1">
  <metadata id="CorelCorpID_0Corel-Layer"/>
  <g>
  </g>
  <g style="clip-path:url(#id0)">
   <g>
    <rect class="fil0" width="1000" height="200"/>
    <g id="_2011645956240">
     <g>
      <path class="fil1" d="M234.477 344.873l-0.258 0c-5.922,0.003 -12.346,0.228 -18.61,1.301l0 0c-11.488,1.966 -20.245,6.06 -26.772,12.512l0 0c-4.205,4.157 -7.438,9.321 -9.612,15.35l0 0c-2.318,6.429 -3.494,14.033 -3.494,22.601l0 0c0,1.121 0.446,2.196 1.24,2.987l0 0c0.791,0.79 1.862,1.233 2.98,1.233l0 0 0.009 0 24.29 -0.055c-1.129,0.784 -2.342,1.555 -3.642,2.313l0 0c-10.841,6.325 -18.512,11.483 -23.249,17.648l0 0c-4.652,6.054 -6.55,12.852 -6.55,23.466l0 0c0,2.324 1.881,4.211 4.207,4.219l0 0c0.505,0.001 50.619,0.156 61.331,0.156l0 0c5.073,0 9.324,-2.088 12.635,-6.206l0 0c0.401,-0.499 0.783,-1.019 1.148,-1.558l0 0 0 3.541c0,2.33 1.889,4.219 4.219,4.219l0 0 38.49 0 0.025 0c7.467,0 14.464,-2.943 19.701,-8.288l0 0c5.197,-5.302 8.063,-12.346 8.069,-19.835l0 0c0.011,-12.335 -7.56,-23.696 -18.354,-27.421l0 0c13.393,-7.971 13.393,-24.432 8.326,-33.456l0 0c-1.564,-2.786 -3.526,-5.353 -5.909,-7.481l0 0c-2.377,-2.133 -5.133,-3.847 -8.103,-5.04l0 0c-5.292,-2.13 -10.808,-2.123 -16.386,-2.118l0 0c-0.721,0.001 -1.444,0.002 -2.167,-0.002l0 0 -35.2 0c-2.605,-0.03 -5.422,-0.084 -8.364,-0.086zm33.083 8.11c3.263,-0.028 6.525,-0.056 9.784,0.027l0 0c7.533,0.193 12.984,0.529 19.269,4.785l0 0c5.705,3.862 9.882,10.474 8.962,17.022l0 0c-1.228,8.735 -4.137,10.974 -9.048,15.128l0 0c-2.72,1.809 -5.743,3.233 -8.949,3.92l0 0c-0.013,0.003 -0.026,0.006 -0.04,0.008l0 0c-0.757,0.164 -0.744,1.255 0.018,1.392l0 0c7.039,1.268 14.083,4.144 18.699,9.595l0 0c3.646,4.306 5.946,9.933 5.941,15.609l0 0c-0.005,5.27 -2.014,10.219 -5.657,13.937l0 0c-3.638,3.712 -8.494,5.755 -13.679,5.755l0 0 -0.018 0c0,0 -35.056,0 -35.056,0l0 0c0,-3.199 1.385,-20.775 1.385,-28.543l0 0c0,-3.595 0.181,-5.238 0.181,-7.405l0 0c0,-1.28 -1.015,-1.763 -1.413,-0.546l0 0c-0.56,1.708 -1.337,4.281 -2.38,8.132l0 0c-5.781,21.314 -9.755,28.367 -19.212,28.367l0 0c-8.83,0 -44.498,-0.106 -56.974,-0.144l0 0c0.404,-6.242 1.819,-10.399 4.677,-14.118l0 0c3.897,-5.072 10.852,-9.69 20.81,-15.5l0 0c8.295,-4.838 13.712,-10.175 16.563,-16.319l0 0c2.458,-5.297 4.623,-12.478 2.298,-18.166l0 0c-2.347,-5.738 -7.957,-9.688 -14.165,-9.83l0 0c-1.554,-0.036 -3.114,0.163 -4.605,0.604l0 0c-1.025,0.302 -0.653,0.712 0.393,0.492l0 0c3.348,-0.705 7.789,0.003 10.037,2.785l0 0c2.471,3.057 1.188,7.015 0.377,10.426l0 0c-0.78,3.276 -1.548,6.555 -2.376,9.82l0 0c-0.036,0.146 -0.439,2.128 -0.592,2.128l0 0c-0.001,0 -28.511,0.065 -28.511,0.065l0 0c0.31,-5.848 1.276,-11.051 2.884,-15.511l0 0c1.744,-4.837 4.303,-8.945 7.606,-12.211l0 0c6.189,-6.117 14.715,-8.981 23.138,-10.329l0 0c8.514,-1.362 18.171,-2.336 25.056,3.944l0 0c6.231,5.686 6.875,13.966 5.474,21.817l0 0c-2.432,13.629 -11.307,28.737 -24.746,33.939l0 0 -0.032 0.012c-0.908,0.352 -1.46,1.338 -1.204,2.347l0 0c0.254,0.999 1.272,1.612 2.291,1.456l0 0c12.89,-1.975 20.514,-12.505 26.38,-23.538l0 0c2.011,-3.781 3.624,-7.806 4.714,-12.051l0 0c0.542,-2.122 0.951,-4.3 1.192,-6.53l0 0c0.76,-7.033 -0.255,-14.654 -4.315,-20.6l0 0c-0.503,-0.743 -1.053,-1.461 -1.643,-2.144l0 0 11.423 0c0.055,0.001 0.11,0.001 0.165,0.001l0 0c1.632,0 3.265,-0.014 4.898,-0.028l0 0z"/>
      <path class="fil2" d="M283.197 413.026l-2.522 0c-0.805,0 -1.456,0.652 -1.456,1.457l0 9.148c0,0.804 0.652,1.456 1.456,1.456l0 0 2.522 0c3.317,0 6.03,-2.714 6.03,-6.031l0 0c0,-3.316 -2.714,-6.03 -6.03,-6.03l0 0c0,0 0,0 0,0l0 0z"/>
      <path class="fil3" d="M280.823 369.894l-2.116 0c-0.674,0 -1.221,0.547 -1.221,1.221l0 7.673c0,0.674 0.547,1.221 1.221,1.221l0 0 2.116 0c2.782,0 5.057,-2.276 5.057,-5.057l0 0c0,-2.782 -2.275,-5.058 -5.057,-5.058z"/>
     </g>
     <polygon class="fil4" points="342.138,416.133 342.138,377.344 339.963,377.344 339.963,416.133 "/>
     <g>
      <polygon class="fil5" points="409.755,425.512 409.732,430.016 362.439,429.775 362.789,361.234 408.612,361.468 408.589,365.972 367.759,365.764 367.622,392.788 404.144,392.974 404.121,397.381 367.599,397.195 367.456,425.296 "/>
      <polygon class="fil6 str0" points="409.755,425.512 409.732,430.016 362.439,429.775 362.789,361.234 408.612,361.468 408.589,365.972 367.759,365.764 367.622,392.788 404.144,392.974 404.121,397.381 367.599,397.195 367.456,425.296 "/>
      <path class="fil5" d="M456.031 423.496c3.109,-1.811 5.57,-4.345 7.382,-7.6 1.812,-3.255 2.729,-6.971 2.75,-11.149 0.022,-4.176 -0.858,-7.902 -2.636,-11.176 -1.779,-3.272 -4.214,-5.831 -7.304,-7.674 -3.092,-1.842 -6.596,-2.776 -10.513,-2.796 -3.916,-0.02 -7.43,0.877 -10.539,2.688 -3.11,1.813 -5.571,4.346 -7.382,7.6 -1.812,3.256 -2.729,6.972 -2.75,11.148 -0.021,4.179 0.857,7.904 2.636,11.177 1.778,3.273 4.213,5.832 7.304,7.675 3.091,1.843 6.595,2.774 10.512,2.795 3.917,0.02 7.43,-0.875 10.54,-2.688zm15.268 -65.821l-0.37 72.654 -4.798 -0.025 0.061 -12.044c-2.045,3.972 -4.9,7.025 -8.565,9.161 -3.668,2.135 -7.818,3.191 -12.452,3.168 -4.766,-0.025 -9.068,-1.157 -12.908,-3.395 -3.841,-2.238 -6.844,-5.323 -9.009,-9.251 -2.169,-3.928 -3.238,-8.404 -3.212,-13.431 0.026,-5.026 1.141,-9.507 3.349,-13.446 2.206,-3.938 5.24,-6.989 9.104,-9.158 3.861,-2.167 8.175,-3.239 12.94,-3.214 4.568,0.023 8.661,1.121 12.272,3.294 3.612,2.172 6.452,5.19 8.522,9.052l0.17 -33.39 4.896 0.025z"/>
      <path class="fil6 str0" d="M456.031 423.496c3.109,-1.811 5.57,-4.345 7.382,-7.6 1.812,-3.255 2.729,-6.971 2.75,-11.149 0.022,-4.176 -0.858,-7.902 -2.636,-11.176 -1.779,-3.272 -4.214,-5.831 -7.304,-7.674 -3.092,-1.842 -6.596,-2.776 -10.513,-2.796 -3.916,-0.02 -7.43,0.877 -10.539,2.688 -3.11,1.813 -5.571,4.346 -7.382,7.6 -1.812,3.256 -2.729,6.972 -2.75,11.148 -0.021,4.179 0.857,7.904 2.636,11.177 1.778,3.273 4.213,5.832 7.304,7.675 3.091,1.843 6.595,2.774 10.512,2.795 3.917,0.02 7.43,-0.875 10.54,-2.688zm15.268 -65.821l-0.37 72.654 -4.798 -0.025 0.061 -12.044c-2.045,3.972 -4.9,7.025 -8.565,9.161 -3.668,2.135 -7.818,3.191 -12.452,3.168 -4.766,-0.025 -9.068,-1.157 -12.908,-3.395 -3.841,-2.238 -6.844,-5.323 -9.009,-9.251 -2.169,-3.928 -3.238,-8.404 -3.212,-13.431 0.026,-5.026 1.141,-9.507 3.349,-13.446 2.206,-3.938 5.24,-6.989 9.104,-9.158 3.861,-2.167 8.175,-3.239 12.94,-3.214 4.568,0.023 8.661,1.121 12.272,3.294 3.612,2.172 6.452,5.19 8.522,9.052l0.17 -33.39 4.896 0.025z"/>
      <path class="fil5" d="M536.593 379.551l-0.26 51.111 -4.7 -0.024 0.056 -10.967c-1.717,3.582 -4.243,6.36 -7.583,8.333 -3.338,1.975 -7.26,2.95 -11.764,2.927 -6.658,-0.034 -11.872,-1.921 -15.637,-5.661 -3.769,-3.74 -5.633,-9.102 -5.598,-16.087l0.152 -29.864 4.896 0.025 -0.15 29.472c-0.029,5.745 1.417,10.127 4.339,13.143 2.922,3.018 7.059,4.54 12.412,4.568 5.743,0.029 10.306,-1.743 13.686,-5.316 3.38,-3.572 5.086,-8.395 5.117,-14.466l0.139 -27.22 4.895 0.026z"/>
      <path class="fil6 str0" d="M536.593 379.551l-0.26 51.111 -4.7 -0.024 0.056 -10.967c-1.717,3.582 -4.243,6.36 -7.583,8.333 -3.338,1.975 -7.26,2.95 -11.764,2.927 -6.658,-0.034 -11.872,-1.921 -15.637,-5.661 -3.769,-3.74 -5.633,-9.102 -5.598,-16.087l0.152 -29.864 4.896 0.025 -0.15 29.472c-0.029,5.745 1.417,10.127 4.339,13.143 2.922,3.018 7.059,4.54 12.412,4.568 5.743,0.029 10.306,-1.743 13.686,-5.316 3.38,-3.572 5.086,-8.395 5.117,-14.466l0.139 -27.22 4.895 0.026z"/>
      <path class="fil5" d="M564.057 427.865c-3.906,-2.238 -6.959,-5.338 -9.158,-9.299 -2.2,-3.96 -3.286,-8.421 -3.26,-13.383 0.025,-5.026 1.157,-9.507 3.397,-13.446 2.239,-3.938 5.323,-6.989 9.252,-9.157 3.927,-2.166 8.37,-3.237 13.332,-3.212 4.112,0.02 7.845,0.84 11.199,2.456 3.354,1.618 6.066,3.965 8.14,7.043l-3.636 2.625c-1.815,-2.555 -4.074,-4.476 -6.776,-5.763 -2.703,-1.287 -5.686,-1.939 -8.95,-1.955 -3.982,-0.021 -7.56,0.86 -10.735,2.638 -3.176,1.78 -5.668,4.296 -7.48,7.551 -1.812,3.255 -2.728,7.003 -2.75,11.245 -0.021,4.244 0.857,8.002 2.636,11.275 1.778,3.273 4.244,5.815 7.402,7.626 3.156,1.813 6.725,2.727 10.708,2.748 3.263,0.016 6.253,-0.605 8.969,-1.864 2.715,-1.26 4.993,-3.157 6.834,-5.694l3.609 2.662c-2.106,3.059 -4.842,5.379 -8.211,6.96 -3.371,1.583 -7.111,2.362 -11.224,2.341 -4.961,-0.025 -9.393,-1.156 -13.298,-3.397z"/>
      <path class="fil6 str0" d="M564.057 427.865c-3.906,-2.238 -6.959,-5.338 -9.158,-9.299 -2.2,-3.96 -3.286,-8.421 -3.26,-13.383 0.025,-5.026 1.157,-9.507 3.397,-13.446 2.239,-3.938 5.323,-6.989 9.252,-9.157 3.927,-2.166 8.37,-3.237 13.332,-3.212 4.112,0.02 7.845,0.84 11.199,2.456 3.354,1.618 6.066,3.965 8.14,7.043l-3.636 2.625c-1.815,-2.555 -4.074,-4.476 -6.776,-5.763 -2.703,-1.287 -5.686,-1.939 -8.95,-1.955 -3.982,-0.021 -7.56,0.86 -10.735,2.638 -3.176,1.78 -5.668,4.296 -7.48,7.551 -1.812,3.255 -2.728,7.003 -2.75,11.245 -0.021,4.244 0.857,8.002 2.636,11.275 1.778,3.273 4.244,5.815 7.402,7.626 3.156,1.813 6.725,2.727 10.708,2.748 3.263,0.016 6.253,-0.605 8.969,-1.864 2.715,-1.26 4.993,-3.157 6.834,-5.694l3.609 2.662c-2.106,3.059 -4.842,5.379 -8.211,6.96 -3.371,1.583 -7.111,2.362 -11.224,2.341 -4.961,-0.025 -9.393,-1.156 -13.298,-3.397z"/>
      <path class="fil5" d="M636.775 424.614c2.98,-1.944 5.229,-4.772 6.75,-8.485l0.049 -9.596 -17.428 -0.088c-5.027,-0.027 -8.67,0.87 -10.932,2.685 -2.261,1.817 -3.399,4.325 -3.416,7.523 -0.017,3.329 1.209,5.963 3.68,7.9 2.471,1.94 5.958,2.919 10.462,2.943 4.243,0.021 7.854,-0.94 10.835,-2.882zm6.716 -40.064c3.377,3.249 5.05,8.007 5.019,14.273l-0.165 32.41 -4.701 -0.024 0.047 -9.107c-1.648,2.996 -4.042,5.317 -7.183,6.965 -3.143,1.649 -6.901,2.462 -11.274,2.44 -5.679,-0.029 -10.161,-1.389 -13.442,-4.084 -3.284,-2.692 -4.913,-6.225 -4.891,-10.599 0.022,-4.243 1.558,-7.68 4.606,-10.307 3.049,-2.629 7.902,-3.926 14.56,-3.892l17.526 0.09 0.022 -4.113c0.024,-4.764 -1.247,-8.394 -3.812,-10.888 -2.567,-2.493 -6.33,-3.753 -11.29,-3.778 -3.395,-0.017 -6.647,0.553 -9.752,1.712 -3.107,1.16 -5.741,2.713 -7.906,4.661l-2.429 -3.538c2.557,-2.271 5.633,-4.035 9.23,-5.289 3.596,-1.256 7.353,-1.872 11.27,-1.852 6.331,0.032 11.186,1.672 14.565,4.92z"/>
      <path class="fil6 str0" d="M636.775 424.614c2.98,-1.944 5.229,-4.772 6.75,-8.485l0.049 -9.596 -17.428 -0.088c-5.027,-0.027 -8.67,0.87 -10.932,2.685 -2.261,1.817 -3.399,4.325 -3.416,7.523 -0.017,3.329 1.209,5.963 3.68,7.9 2.471,1.94 5.958,2.919 10.462,2.943 4.243,0.021 7.854,-0.94 10.835,-2.882zm6.716 -40.064c3.377,3.249 5.05,8.007 5.019,14.273l-0.165 32.41 -4.701 -0.024 0.047 -9.107c-1.648,2.996 -4.042,5.317 -7.183,6.965 -3.143,1.649 -6.901,2.462 -11.274,2.44 -5.679,-0.029 -10.161,-1.389 -13.442,-4.084 -3.284,-2.692 -4.913,-6.225 -4.891,-10.599 0.022,-4.243 1.558,-7.68 4.606,-10.307 3.049,-2.629 7.902,-3.926 14.56,-3.892l17.526 0.09 0.022 -4.113c0.024,-4.764 -1.247,-8.394 -3.812,-10.888 -2.567,-2.493 -6.33,-3.753 -11.29,-3.778 -3.395,-0.017 -6.647,0.553 -9.752,1.712 -3.107,1.16 -5.741,2.713 -7.906,4.661l-2.429 -3.538c2.557,-2.271 5.633,-4.035 9.23,-5.289 3.596,-1.256 7.353,-1.872 11.27,-1.852 6.331,0.032 11.186,1.672 14.565,4.92z"/>
      <path class="fil5" d="M677.327 450.181l1.385 -2.735c1.755,1.38 3.872,2.076 6.353,2.089 1.959,0.009 3.528,-0.44 4.707,-1.347 1.18,-0.909 1.774,-2.179 1.783,-3.809 0.007,-1.503 -0.542,-2.713 -1.646,-3.632 -1.107,-0.921 -2.703,-1.385 -4.792,-1.395l-1.958 -0.01 2.296 -8.508 3.231 0.016 -1.597 5.868c2.609,0.209 4.646,1.018 6.108,2.43 1.461,1.411 2.187,3.226 2.175,5.446 -0.013,2.479 -0.987,4.449 -2.918,5.909 -1.934,1.458 -4.402,2.18 -7.404,2.165 -3.069,-0.016 -5.643,-0.846 -7.723,-2.487zm-1.749 -21.747c-3.906,-2.238 -6.959,-5.338 -9.157,-9.3 -2.2,-3.959 -3.287,-8.42 -3.261,-13.382 0.025,-5.026 1.157,-9.507 3.397,-13.446 2.239,-3.938 5.324,-6.989 9.251,-9.157 3.928,-2.166 8.372,-3.238 13.333,-3.213 4.113,0.022 7.845,0.841 11.199,2.457 3.353,1.617 6.066,3.963 8.14,7.042l-3.636 2.626c-1.816,-2.556 -4.074,-4.477 -6.776,-5.763 -2.702,-1.287 -5.686,-1.939 -8.949,-1.955 -3.983,-0.021 -7.561,0.859 -10.736,2.638 -3.175,1.78 -5.669,4.296 -7.48,7.551 -1.812,3.254 -2.728,7.003 -2.749,11.245 -0.023,4.244 0.855,8.002 2.634,11.274 1.779,3.274 4.245,5.816 7.403,7.626 3.157,1.813 6.726,2.728 10.708,2.748 3.263,0.017 6.253,-0.604 8.969,-1.864 2.715,-1.259 4.993,-3.157 6.834,-5.693l3.609 2.662c-2.105,3.059 -4.842,5.378 -8.211,6.96 -3.371,1.583 -7.111,2.362 -11.223,2.341 -4.962,-0.025 -9.395,-1.157 -13.299,-3.397z"/>
      <path class="fil6 str0" d="M677.327 450.181l1.385 -2.735c1.755,1.38 3.872,2.076 6.353,2.089 1.959,0.009 3.528,-0.44 4.707,-1.347 1.18,-0.909 1.774,-2.179 1.783,-3.809 0.007,-1.503 -0.542,-2.713 -1.646,-3.632 -1.107,-0.921 -2.703,-1.385 -4.792,-1.395l-1.958 -0.01 2.296 -8.508 3.231 0.016 -1.597 5.868c2.609,0.209 4.646,1.018 6.108,2.43 1.461,1.411 2.187,3.226 2.175,5.446 -0.013,2.479 -0.987,4.449 -2.918,5.909 -1.934,1.458 -4.402,2.18 -7.404,2.165 -3.069,-0.016 -5.643,-0.846 -7.723,-2.487zm-1.749 -21.747c-3.906,-2.238 -6.959,-5.338 -9.157,-9.3 -2.2,-3.959 -3.287,-8.42 -3.261,-13.382 0.025,-5.026 1.157,-9.507 3.397,-13.446 2.239,-3.938 5.324,-6.989 9.251,-9.157 3.928,-2.166 8.372,-3.238 13.333,-3.213 4.113,0.022 7.845,0.841 11.199,2.457 3.353,1.617 6.066,3.963 8.14,7.042l-3.636 2.626c-1.816,-2.556 -4.074,-4.477 -6.776,-5.763 -2.702,-1.287 -5.686,-1.939 -8.949,-1.955 -3.983,-0.021 -7.561,0.859 -10.736,2.638 -3.175,1.78 -5.669,4.296 -7.48,7.551 -1.812,3.254 -2.728,7.003 -2.749,11.245 -0.023,4.244 0.855,8.002 2.634,11.274 1.779,3.274 4.245,5.816 7.403,7.626 3.157,1.813 6.726,2.728 10.708,2.748 3.263,0.017 6.253,-0.604 8.969,-1.864 2.715,-1.259 4.993,-3.157 6.834,-5.693l3.609 2.662c-2.105,3.059 -4.842,5.378 -8.211,6.96 -3.371,1.583 -7.111,2.362 -11.223,2.341 -4.962,-0.025 -9.395,-1.157 -13.299,-3.397z"/>
      <path class="fil5" d="M742.896 370.468c-1.139,-0.692 -2.327,-1.628 -3.56,-2.809 -1.105,-0.985 -2.031,-1.724 -2.779,-2.217 -0.749,-0.494 -1.547,-0.742 -2.395,-0.747 -1.502,-0.007 -2.712,0.558 -3.631,1.695 -0.922,1.138 -1.451,2.685 -1.591,4.643l-3.231 -0.017c0.145,-2.936 0.94,-5.297 2.386,-7.086 1.444,-1.787 3.375,-2.676 5.791,-2.663 1.434,0.007 2.723,0.356 3.862,1.048 1.138,0.69 2.325,1.626 3.56,2.808 1.104,0.985 2.03,1.724 2.779,2.217 0.747,0.494 1.546,0.743 2.395,0.748 1.5,0.007 2.711,-0.541 3.631,-1.647 0.919,-1.105 1.449,-2.603 1.59,-4.496l3.231 0.016c-0.146,2.873 -0.957,5.186 -2.435,6.94 -1.477,1.755 -3.391,2.627 -5.74,2.615 -1.437,-0.007 -2.726,-0.356 -3.863,-1.048zm5.399 54.714c2.981,-1.943 5.23,-4.771 6.751,-8.484l0.05 -9.596 -17.429 -0.089c-5.027,-0.026 -8.67,0.871 -10.932,2.686 -2.261,1.817 -3.4,4.325 -3.416,7.523 -0.017,3.329 1.209,5.964 3.681,7.9 2.47,1.94 5.958,2.92 10.461,2.942 4.243,0.022 7.854,-0.939 10.834,-2.882zm6.717 -40.062c3.376,3.248 5.051,8.005 5.018,14.272l-0.165 32.41 -4.7 -0.024 0.047 -9.106c-1.648,2.994 -4.042,5.315 -7.184,6.964 -3.141,1.648 -6.9,2.461 -11.273,2.439 -5.678,-0.029 -10.16,-1.389 -13.442,-4.083 -3.284,-2.693 -4.913,-6.226 -4.891,-10.6 0.022,-4.242 1.557,-7.679 4.606,-10.307 3.049,-2.628 7.902,-3.925 14.56,-3.891l17.527 0.089 0.021 -4.112c0.024,-4.764 -1.247,-8.394 -3.812,-10.888 -2.567,-2.493 -6.33,-3.753 -11.29,-3.778 -3.395,-0.018 -6.646,0.553 -9.751,1.712 -3.108,1.16 -5.743,2.713 -7.907,4.66l-2.429 -3.537c2.557,-2.271 5.633,-4.036 9.23,-5.29 3.597,-1.254 7.354,-1.872 11.271,-1.851 6.33,0.032 11.186,1.671 14.564,4.921z"/>
      <path class="fil6 str0" d="M742.896 370.468c-1.139,-0.692 -2.327,-1.628 -3.56,-2.809 -1.105,-0.985 -2.031,-1.724 -2.779,-2.217 -0.749,-0.494 -1.547,-0.742 -2.395,-0.747 -1.502,-0.007 -2.712,0.558 -3.631,1.695 -0.922,1.138 -1.451,2.685 -1.591,4.643l-3.231 -0.017c0.145,-2.936 0.94,-5.297 2.386,-7.086 1.444,-1.787 3.375,-2.676 5.791,-2.663 1.434,0.007 2.723,0.356 3.862,1.048 1.138,0.69 2.325,1.626 3.56,2.808 1.104,0.985 2.03,1.724 2.779,2.217 0.747,0.494 1.546,0.743 2.395,0.748 1.5,0.007 2.711,-0.541 3.631,-1.647 0.919,-1.105 1.449,-2.603 1.59,-4.496l3.231 0.016c-0.146,2.873 -0.957,5.186 -2.435,6.94 -1.477,1.755 -3.391,2.627 -5.74,2.615 -1.437,-0.007 -2.726,-0.356 -3.863,-1.048zm5.399 54.714c2.981,-1.943 5.23,-4.771 6.751,-8.484l0.05 -9.596 -17.429 -0.089c-5.027,-0.026 -8.67,0.871 -10.932,2.686 -2.261,1.817 -3.4,4.325 -3.416,7.523 -0.017,3.329 1.209,5.964 3.681,7.9 2.47,1.94 5.958,2.92 10.461,2.942 4.243,0.022 7.854,-0.939 10.834,-2.882zm6.717 -40.062c3.376,3.248 5.051,8.005 5.018,14.272l-0.165 32.41 -4.7 -0.024 0.047 -9.106c-1.648,2.994 -4.042,5.315 -7.184,6.964 -3.141,1.648 -6.9,2.461 -11.273,2.439 -5.678,-0.029 -10.16,-1.389 -13.442,-4.083 -3.284,-2.693 -4.913,-6.226 -4.891,-10.6 0.022,-4.242 1.557,-7.679 4.606,-10.307 3.049,-2.628 7.902,-3.925 14.56,-3.891l17.527 0.089 0.021 -4.112c0.024,-4.764 -1.247,-8.394 -3.812,-10.888 -2.567,-2.493 -6.33,-3.753 -11.29,-3.778 -3.395,-0.018 -6.646,0.553 -9.751,1.712 -3.108,1.16 -5.743,2.713 -7.907,4.66l-2.429 -3.537c2.557,-2.271 5.633,-4.036 9.23,-5.29 3.597,-1.254 7.354,-1.872 11.271,-1.851 6.33,0.032 11.186,1.671 14.564,4.921z"/>
      <path class="fil5" d="M810.667 425.304c3.108,-1.81 5.57,-4.344 7.382,-7.599 1.812,-3.255 2.728,-6.971 2.75,-11.149 0.021,-4.176 -0.858,-7.902 -2.636,-11.176 -1.779,-3.272 -4.214,-5.831 -7.305,-7.675 -3.091,-1.842 -6.595,-2.775 -10.512,-2.795 -3.916,-0.02 -7.43,0.877 -10.539,2.688 -3.11,1.812 -5.571,4.346 -7.382,7.599 -1.813,3.257 -2.729,6.973 -2.75,11.149 -0.021,4.179 0.857,7.903 2.636,11.176 1.778,3.274 4.212,5.833 7.305,7.675 3.09,1.844 6.594,2.775 10.511,2.795 3.916,0.02 7.43,-0.875 10.54,-2.688zm-23.617 3.699c-3.873,-2.238 -6.909,-5.338 -9.108,-9.3 -2.2,-3.96 -3.286,-8.42 -3.26,-13.382 0.025,-4.96 1.156,-9.41 3.397,-13.348 2.238,-3.938 5.306,-7.007 9.202,-9.207 3.894,-2.199 8.257,-3.287 13.088,-3.262 4.83,0.025 9.181,1.157 13.055,3.396 3.871,2.239 6.908,5.339 9.107,9.3 2.199,3.961 3.286,8.421 3.262,13.382 -0.026,4.961 -1.16,9.41 -3.398,13.348 -2.24,3.939 -5.308,7.008 -9.202,9.206 -3.896,2.2 -8.259,3.287 -13.089,3.263 -4.832,-0.025 -9.182,-1.157 -13.054,-3.396z"/>
      <path class="fil6 str0" d="M810.667 425.304c3.108,-1.81 5.57,-4.344 7.382,-7.599 1.812,-3.255 2.728,-6.971 2.75,-11.149 0.021,-4.176 -0.858,-7.902 -2.636,-11.176 -1.779,-3.272 -4.214,-5.831 -7.305,-7.675 -3.091,-1.842 -6.595,-2.775 -10.512,-2.795 -3.916,-0.02 -7.43,0.877 -10.539,2.688 -3.11,1.812 -5.571,4.346 -7.382,7.599 -1.813,3.257 -2.729,6.973 -2.75,11.149 -0.021,4.179 0.857,7.903 2.636,11.176 1.778,3.274 4.212,5.833 7.305,7.675 3.09,1.844 6.594,2.775 10.511,2.795 3.916,0.02 7.43,-0.875 10.54,-2.688zm-23.617 3.699c-3.873,-2.238 -6.909,-5.338 -9.108,-9.3 -2.2,-3.96 -3.286,-8.42 -3.26,-13.382 0.025,-4.96 1.156,-9.41 3.397,-13.348 2.238,-3.938 5.306,-7.007 9.202,-9.207 3.894,-2.199 8.257,-3.287 13.088,-3.262 4.83,0.025 9.181,1.157 13.055,3.396 3.871,2.239 6.908,5.339 9.107,9.3 2.199,3.961 3.286,8.421 3.262,13.382 -0.026,4.961 -1.16,9.41 -3.398,13.348 -2.24,3.939 -5.308,7.008 -9.202,9.206 -3.896,2.2 -8.259,3.287 -13.089,3.263 -4.832,-0.025 -9.182,-1.157 -13.054,-3.396z"/>
     </g>
    </g>
    <g id="_2011645950512">
     <path class="fil7" d="M-608.559 -256.4l-0.331 0c-7.569,0.004 -15.78,0.292 -23.785,1.662l0 0c-14.683,2.515 -25.877,7.746 -34.22,15.994l0 0c-5.374,5.312 -9.507,11.913 -12.285,19.619l0 0c-2.963,8.217 -4.465,17.936 -4.465,28.888l0 0c0,1.432 0.57,2.806 1.584,3.817l0 0c1.011,1.01 2.381,1.576 3.809,1.576l0 0 0.012 0 31.045 -0.07c-1.442,1.002 -2.993,1.987 -4.654,2.956l0 0c-13.857,8.084 -23.662,14.677 -29.717,22.557l0 0c-5.946,7.738 -8.37,16.427 -8.37,29.993l0 0c0,2.971 2.404,5.383 5.376,5.393l0 0c0.645,0.001 64.7,0.199 78.392,0.199l0 0c6.483,0 11.916,-2.668 16.148,-7.932l0 0c0.513,-0.637 1.001,-1.302 1.468,-1.991l0 0 0 4.526c0,2.977 2.414,5.392 5.393,5.392l0 0 49.195 0 0.032 0c9.545,0 18.487,-3.761 25.182,-10.593l0 0c6.642,-6.777 10.305,-15.781 10.313,-25.352l0 0c0.014,-15.767 -9.663,-30.288 -23.46,-35.048l0 0c17.119,-10.189 17.119,-31.228 10.643,-42.763l0 0c-1.999,-3.56 -4.508,-6.842 -7.553,-9.562l0 0c-3.038,-2.725 -6.562,-4.916 -10.357,-6.442l0 0c-6.765,-2.721 -13.814,-2.713 -20.943,-2.706l0 0c-0.923,0.001 -1.846,0.002 -2.77,-0.003l0 0 -44.992 0c-3.33,-0.038 -6.929,-0.108 -10.69,-0.11zm42.285 10.366c4.171,-0.036 8.341,-0.071 12.505,0.035l0 0c9.629,0.246 16.596,0.676 24.63,6.115l0 0c7.291,4.937 12.63,13.387 11.453,21.757l0 0c-1.568,11.165 -5.287,14.026 -11.563,19.337l0 0c-3.477,2.312 -7.341,4.131 -11.438,5.01l0 0c-0.018,0.003 -0.034,0.007 -0.052,0.01l0 0c-0.968,0.209 -0.951,1.603 0.023,1.779l0 0c8.997,1.621 18,5.297 23.9,12.264l0 0c4.661,5.504 7.6,12.696 7.594,19.951l0 0c-0.006,6.735 -2.574,13.061 -7.231,17.813l0 0c-4.65,4.745 -10.856,7.357 -17.484,7.357l0 0 -0.022 0c0,0 -44.808,0 -44.808,-0.001l0 0c0,-4.089 1.77,-26.554 1.77,-36.482l0 0c0,-4.595 0.231,-6.695 0.231,-9.465l0 0c0,-1.636 -1.297,-2.254 -1.806,-0.699l0 0c-0.715,2.184 -1.707,5.473 -3.042,10.395l0 0c-7.388,27.243 -12.467,36.257 -24.554,36.257l0 0c-11.287,0 -56.877,-0.135 -72.823,-0.183l0 0c0.516,-7.978 2.325,-13.292 5.978,-18.046l0 0c4.981,-6.482 13.87,-12.386 26.599,-19.811l0 0c10.601,-6.184 17.526,-13.006 21.169,-20.858l0 0c3.143,-6.77 5.91,-15.95 2.937,-23.22l0 0c-2.999,-7.333 -10.169,-12.382 -18.104,-12.564l0 0c-1.986,-0.046 -3.98,0.209 -5.886,0.772l0 0c-1.31,0.387 -0.835,0.91 0.502,0.629l0 0c4.279,-0.901 9.955,0.004 12.83,3.56l0 0c3.157,3.907 1.518,8.967 0.481,13.325l0 0c-0.997,4.188 -1.979,8.38 -3.036,12.553l0 0c-0.048,0.185 -0.562,2.72 -0.758,2.72l0 0c-0.001,0 -36.441,0.082 -36.441,0.082l0 0c0.396,-7.474 1.631,-14.124 3.686,-19.825l0 0c2.229,-6.182 5.5,-11.433 9.722,-15.607l0 0c7.91,-7.819 18.807,-11.479 29.573,-13.202l0 0c10.882,-1.742 23.227,-2.987 32.026,5.041l0 0c7.964,7.266 8.788,17.851 6.997,27.884l0 0c-3.109,17.421 -14.452,36.731 -31.629,43.381l0 0 -0.041 0.015c-1.16,0.449 -1.867,1.71 -1.539,2.999l0 0c0.324,1.277 1.625,2.061 2.927,1.862l0 0c16.477,-2.525 26.221,-15.984 33.719,-30.085l0 0c2.571,-4.834 4.632,-9.979 6.024,-15.403l0 0c0.694,-2.713 1.216,-5.497 1.524,-8.348l0 0c0.972,-8.988 -0.325,-18.729 -5.514,-26.33l0 0c-0.643,-0.949 -1.347,-1.866 -2.101,-2.739l0 0 14.601 0c0.07,0 0.14,0 0.21,0l0 0c2.087,0 4.174,-0.017 6.261,-0.035l0 0z"/>
     <path class="fil7" d="M-546.288 -169.29l-3.223 0.001c-1.028,0 -1.861,0.833 -1.861,1.861l0 11.693c0,1.028 0.834,1.861 1.861,1.861l0 0 3.224 0c4.239,0 7.707,-3.469 7.706,-7.708l0 0c0,-4.239 -3.468,-7.707 -7.706,-7.708l0 0c0,0 0,0 -0.001,0l0 0z"/>
     <path class="fil7" d="M-549.322 -224.419l-2.704 0c-0.862,0 -1.561,0.699 -1.561,1.561l0 9.806c0,0.862 0.699,1.562 1.561,1.562l0 0 2.704 0c3.555,0 6.464,-2.909 6.464,-6.465l0 0c0,-3.555 -2.909,-6.464 -6.464,-6.464z"/>
     <polygon class="fil4" points="-469.744,-159.388 -469.744,-227.86 -473.64,-227.86 -473.64,-159.388 "/>
     <g>
      <polygon class="fil5" points="-367.416,-150.178 -367.45,-143.499 -437.585,-143.856 -437.067,-245.502 -369.11,-245.156 -369.144,-238.476 -429.695,-238.785 -429.9,-198.708 -375.737,-198.432 -375.771,-191.897 -429.933,-192.173 -430.146,-150.498 "/>
      <polygon class="fil6 str0" points="-367.416,-150.178 -367.45,-143.499 -437.585,-143.856 -437.067,-245.502 -369.11,-245.156 -369.144,-238.476 -429.695,-238.785 -429.9,-198.708 -375.737,-198.432 -375.771,-191.897 -429.933,-192.173 -430.146,-150.498 "/>
      <path class="fil5" d="M-298.787 -153.168c4.61,-2.685 8.26,-6.443 10.948,-11.271 2.686,-4.826 4.046,-10.337 4.078,-16.533 0.031,-6.194 -1.272,-11.719 -3.909,-16.574 -2.639,-4.853 -6.25,-8.647 -10.833,-11.382 -4.585,-2.732 -9.781,-4.115 -15.59,-4.145 -5.807,-0.03 -11.019,1.3 -15.63,3.986 -4.612,2.688 -8.261,6.445 -10.948,11.271 -2.687,4.828 -4.046,10.338 -4.077,16.533 -0.032,6.196 1.27,11.72 3.909,16.575 2.636,4.854 6.247,8.649 10.832,11.381 4.583,2.735 9.78,4.116 15.589,4.146 5.808,0.029 11.018,-1.298 15.631,-3.987zm22.642 -97.612l-0.549 107.745 -7.115 -0.037 0.09 -17.86c-3.032,5.89 -7.265,10.418 -12.702,13.585 -5.439,3.167 -11.594,4.733 -18.466,4.698 -7.068,-0.037 -13.448,-1.714 -19.142,-5.035 -5.697,-3.318 -10.15,-7.894 -13.362,-13.719 -3.215,-5.825 -4.801,-12.463 -4.763,-19.918 0.038,-7.454 1.692,-14.1 4.967,-19.941 3.272,-5.84 7.771,-10.365 13.501,-13.581 5.726,-3.214 12.124,-4.803 19.191,-4.767 6.775,0.035 12.843,1.663 18.2,4.885 5.356,3.222 9.568,7.697 12.638,13.424l0.252 -49.517 7.26 0.038z"/>
      <path class="fil6 str0" d="M-298.787 -153.168c4.61,-2.685 8.26,-6.443 10.948,-11.271 2.686,-4.826 4.046,-10.337 4.078,-16.533 0.031,-6.194 -1.272,-11.719 -3.909,-16.574 -2.639,-4.853 -6.25,-8.647 -10.833,-11.382 -4.585,-2.732 -9.781,-4.115 -15.59,-4.145 -5.807,-0.03 -11.019,1.3 -15.63,3.986 -4.612,2.688 -8.261,6.445 -10.948,11.271 -2.687,4.828 -4.046,10.338 -4.077,16.533 -0.032,6.196 1.27,11.72 3.909,16.575 2.636,4.854 6.247,8.649 10.832,11.381 4.583,2.735 9.78,4.116 15.589,4.146 5.808,0.029 11.018,-1.298 15.631,-3.987zm22.642 -97.612l-0.549 107.745 -7.115 -0.037 0.09 -17.86c-3.032,5.89 -7.265,10.418 -12.702,13.585 -5.439,3.167 -11.594,4.733 -18.466,4.698 -7.068,-0.037 -13.448,-1.714 -19.142,-5.035 -5.697,-3.318 -10.15,-7.894 -13.362,-13.719 -3.215,-5.825 -4.801,-12.463 -4.763,-19.918 0.038,-7.454 1.692,-14.1 4.967,-19.941 3.272,-5.84 7.771,-10.365 13.501,-13.581 5.726,-3.214 12.124,-4.803 19.191,-4.767 6.775,0.035 12.843,1.663 18.2,4.885 5.356,3.222 9.568,7.697 12.638,13.424l0.252 -49.517 7.26 0.038z"/>
      <path class="fil5" d="M-179.312 -218.339l-0.386 75.799 -6.97 -0.036 0.083 -16.264c-2.546,5.312 -6.293,9.432 -11.245,12.359 -4.951,2.928 -10.768,4.374 -17.447,4.339 -9.874,-0.05 -17.607,-2.848 -23.191,-8.394 -5.588,-5.548 -8.353,-13.499 -8.301,-23.858l0.226 -44.289 7.261 0.038 -0.223 43.708c-0.043,8.519 2.102,15.017 6.435,19.49 4.333,4.477 10.468,6.733 18.407,6.775 8.517,0.042 15.284,-2.585 20.297,-7.884 5.012,-5.297 7.542,-12.45 7.588,-21.453l0.206 -40.368 7.26 0.038z"/>
      <path class="fil6 str0" d="M-179.312 -218.339l-0.386 75.799 -6.97 -0.036 0.083 -16.264c-2.546,5.312 -6.293,9.432 -11.245,12.359 -4.951,2.928 -10.768,4.374 -17.447,4.339 -9.874,-0.05 -17.607,-2.848 -23.191,-8.394 -5.588,-5.548 -8.353,-13.499 -8.301,-23.858l0.226 -44.289 7.261 0.038 -0.223 43.708c-0.043,8.519 2.102,15.017 6.435,19.49 4.333,4.477 10.468,6.733 18.407,6.775 8.517,0.042 15.284,-2.585 20.297,-7.884 5.012,-5.297 7.542,-12.45 7.588,-21.453l0.206 -40.368 7.26 0.038z"/>
      <path class="fil5" d="M-138.584 -146.688c-5.792,-3.319 -10.319,-7.917 -13.579,-13.791 -3.263,-5.873 -4.874,-12.489 -4.836,-19.847 0.037,-7.453 1.716,-14.099 5.039,-19.941 3.32,-5.839 7.894,-10.365 13.719,-13.58 5.824,-3.211 12.414,-4.801 19.772,-4.762 6.099,0.029 11.634,1.245 16.609,3.641 4.973,2.399 8.996,5.88 12.071,10.445l-5.391 3.893c-2.693,-3.79 -6.043,-6.639 -10.05,-8.546 -4.007,-1.909 -8.433,-2.875 -13.272,-2.9 -5.905,-0.03 -11.213,1.275 -15.92,3.913 -4.71,2.639 -8.407,6.37 -11.093,11.197 -2.688,4.828 -4.047,10.386 -4.079,16.678 -0.032,6.294 1.27,11.866 3.908,16.72 2.638,4.855 6.295,8.624 10.979,11.31 4.68,2.688 9.973,4.044 15.879,4.074 4.839,0.025 9.274,-0.897 13.301,-2.764 4.027,-1.868 7.404,-4.682 10.136,-8.444l5.352 3.948c-3.123,4.537 -7.18,7.977 -12.177,10.321 -5,2.348 -10.547,3.504 -16.645,3.473 -7.358,-0.037 -13.931,-1.715 -19.723,-5.038z"/>
      <path class="fil6 str0" d="M-138.584 -146.688c-5.792,-3.319 -10.319,-7.917 -13.579,-13.791 -3.263,-5.873 -4.874,-12.489 -4.836,-19.847 0.037,-7.453 1.716,-14.099 5.039,-19.941 3.32,-5.839 7.894,-10.365 13.719,-13.58 5.824,-3.211 12.414,-4.801 19.772,-4.762 6.099,0.029 11.634,1.245 16.609,3.641 4.973,2.399 8.996,5.88 12.071,10.445l-5.391 3.893c-2.693,-3.79 -6.043,-6.639 -10.05,-8.546 -4.007,-1.909 -8.433,-2.875 -13.272,-2.9 -5.905,-0.03 -11.213,1.275 -15.92,3.913 -4.71,2.639 -8.407,6.37 -11.093,11.197 -2.688,4.828 -4.047,10.386 -4.079,16.678 -0.032,6.294 1.27,11.866 3.908,16.72 2.638,4.855 6.295,8.624 10.979,11.31 4.68,2.688 9.973,4.044 15.879,4.074 4.839,0.025 9.274,-0.897 13.301,-2.764 4.027,-1.868 7.404,-4.682 10.136,-8.444l5.352 3.948c-3.123,4.537 -7.18,7.977 -12.177,10.321 -5,2.348 -10.547,3.504 -16.645,3.473 -7.358,-0.037 -13.931,-1.715 -19.723,-5.038z"/>
      <path class="fil5" d="M-30.741 -151.51c4.419,-2.882 7.755,-7.076 10.011,-12.583l0.073 -14.231 -25.847 -0.131c-7.455,-0.039 -12.858,1.291 -16.212,3.983 -3.353,2.694 -5.042,6.414 -5.065,11.156 -0.025,4.937 1.792,8.844 5.457,11.716 3.663,2.877 8.836,4.33 15.515,4.364 6.292,0.032 11.647,-1.393 16.068,-4.274zm9.96 -59.414c5.008,4.818 7.49,11.873 7.443,21.166l-0.245 48.065 -6.97 -0.036 0.068 -13.505c-2.444,4.442 -5.993,7.884 -10.652,10.329 -4.66,2.444 -10.234,3.651 -16.719,3.617 -8.422,-0.043 -15.069,-2.059 -19.935,-6.055 -4.869,-3.993 -7.286,-9.233 -7.253,-15.72 0.033,-6.291 2.31,-11.388 6.83,-15.285 4.522,-3.898 11.719,-5.822 21.593,-5.771l25.992 0.132 0.032 -6.098c0.036,-7.066 -1.85,-12.448 -5.653,-16.147 -3.807,-3.698 -9.388,-5.566 -16.744,-5.604 -5.034,-0.026 -9.857,0.821 -14.462,2.54 -4.608,1.719 -8.514,4.023 -11.725,6.911l-3.603 -5.246c3.793,-3.369 8.356,-5.984 13.69,-7.845 5.332,-1.861 10.905,-2.776 16.714,-2.746 9.387,0.048 16.588,2.48 21.599,7.298z"/>
      <path class="fil6 str0" d="M-30.741 -151.51c4.419,-2.882 7.755,-7.076 10.011,-12.583l0.073 -14.231 -25.847 -0.131c-7.455,-0.039 -12.858,1.291 -16.212,3.983 -3.353,2.694 -5.042,6.414 -5.065,11.156 -0.025,4.937 1.792,8.844 5.457,11.716 3.663,2.877 8.836,4.33 15.515,4.364 6.292,0.032 11.647,-1.393 16.068,-4.274zm9.96 -59.414c5.008,4.818 7.49,11.873 7.443,21.166l-0.245 48.065 -6.97 -0.036 0.068 -13.505c-2.444,4.442 -5.993,7.884 -10.652,10.329 -4.66,2.444 -10.234,3.651 -16.719,3.617 -8.422,-0.043 -15.069,-2.059 -19.935,-6.055 -4.869,-3.993 -7.286,-9.233 -7.253,-15.72 0.033,-6.291 2.31,-11.388 6.83,-15.285 4.522,-3.898 11.719,-5.822 21.593,-5.771l25.992 0.132 0.032 -6.098c0.036,-7.066 -1.85,-12.448 -5.653,-16.147 -3.807,-3.698 -9.388,-5.566 -16.744,-5.604 -5.034,-0.026 -9.857,0.821 -14.462,2.54 -4.608,1.719 -8.514,4.023 -11.725,6.911l-3.603 -5.246c3.793,-3.369 8.356,-5.984 13.69,-7.845 5.332,-1.861 10.905,-2.776 16.714,-2.746 9.387,0.048 16.588,2.48 21.599,7.298z"/>
      <path class="fil5" d="M29.399 -113.594l2.053 -4.056c2.603,2.047 5.743,3.079 9.423,3.098 2.904,0.015 5.231,-0.651 6.981,-1.997 1.748,-1.348 2.63,-3.232 2.643,-5.649 0.011,-2.229 -0.804,-4.022 -2.442,-5.386 -1.64,-1.365 -4.008,-2.053 -7.105,-2.069l-2.904 -0.015 3.404 -12.617 4.792 0.025 -2.368 8.7c3.869,0.311 6.89,1.51 9.058,3.605 2.167,2.092 3.243,4.783 3.226,8.076 -0.019,3.677 -1.463,6.599 -4.328,8.763 -2.868,2.163 -6.529,3.233 -10.98,3.211 -4.552,-0.023 -8.369,-1.254 -11.453,-3.689zm-2.595 -32.25c-5.792,-3.319 -10.32,-7.917 -13.58,-13.792 -3.262,-5.872 -4.873,-12.488 -4.836,-19.846 0.038,-7.454 1.717,-14.099 5.04,-19.941 3.319,-5.839 7.893,-10.365 13.718,-13.58 5.825,-3.213 12.415,-4.801 19.773,-4.764 6.099,0.031 11.634,1.246 16.609,3.643 4.972,2.398 8.995,5.878 12.071,10.444l-5.392 3.894c-2.693,-3.79 -6.042,-6.639 -10.049,-8.547 -4.008,-1.908 -8.433,-2.875 -13.272,-2.9 -5.906,-0.029 -11.212,1.275 -15.921,3.913 -4.71,2.639 -8.407,6.371 -11.093,11.198 -2.688,4.827 -4.046,10.386 -4.078,16.678 -0.033,6.294 1.269,11.866 3.907,16.719 2.638,4.855 6.296,8.625 10.979,11.309 4.682,2.688 9.975,4.046 15.88,4.076 4.839,0.025 9.274,-0.897 13.301,-2.765 4.026,-1.867 7.404,-4.681 10.136,-8.443l5.352 3.948c-3.123,4.536 -7.181,7.975 -12.177,10.321 -4.999,2.348 -10.546,3.504 -16.645,3.472 -7.358,-0.037 -13.932,-1.715 -19.723,-5.037z"/>
      <path class="fil6 str0" d="M29.399 -113.594l2.053 -4.056c2.603,2.047 5.743,3.079 9.423,3.098 2.904,0.015 5.231,-0.651 6.981,-1.997 1.748,-1.348 2.63,-3.232 2.643,-5.649 0.011,-2.229 -0.804,-4.022 -2.442,-5.386 -1.64,-1.365 -4.008,-2.053 -7.105,-2.069l-2.904 -0.015 3.404 -12.617 4.792 0.025 -2.368 8.7c3.869,0.311 6.89,1.51 9.058,3.605 2.167,2.092 3.243,4.783 3.226,8.076 -0.019,3.677 -1.463,6.599 -4.328,8.763 -2.868,2.163 -6.529,3.233 -10.98,3.211 -4.552,-0.023 -8.369,-1.254 -11.453,-3.689zm-2.595 -32.25c-5.792,-3.319 -10.32,-7.917 -13.58,-13.792 -3.262,-5.872 -4.873,-12.488 -4.836,-19.846 0.038,-7.454 1.717,-14.099 5.04,-19.941 3.319,-5.839 7.893,-10.365 13.718,-13.58 5.825,-3.213 12.415,-4.801 19.773,-4.764 6.099,0.031 11.634,1.246 16.609,3.643 4.972,2.398 8.995,5.878 12.071,10.444l-5.392 3.894c-2.693,-3.79 -6.042,-6.639 -10.049,-8.547 -4.008,-1.908 -8.433,-2.875 -13.272,-2.9 -5.906,-0.029 -11.212,1.275 -15.921,3.913 -4.71,2.639 -8.407,6.371 -11.093,11.198 -2.688,4.827 -4.046,10.386 -4.078,16.678 -0.033,6.294 1.269,11.866 3.907,16.719 2.638,4.855 6.296,8.625 10.979,11.309 4.682,2.688 9.975,4.046 15.88,4.076 4.839,0.025 9.274,-0.897 13.301,-2.765 4.026,-1.867 7.404,-4.681 10.136,-8.443l5.352 3.948c-3.123,4.536 -7.181,7.975 -12.177,10.321 -4.999,2.348 -10.546,3.504 -16.645,3.472 -7.358,-0.037 -13.932,-1.715 -19.723,-5.037z"/>
      <path class="fil5" d="M126.638 -231.809c-1.689,-1.026 -3.45,-2.414 -5.278,-4.166 -1.64,-1.46 -3.014,-2.556 -4.122,-3.288 -1.11,-0.731 -2.295,-1.1 -3.553,-1.107 -2.227,-0.011 -4.021,0.828 -5.384,2.514 -1.366,1.687 -2.152,3.981 -2.359,6.885l-4.792 -0.025c0.215,-4.355 1.394,-7.856 3.539,-10.509 2.141,-2.65 5.005,-3.968 8.587,-3.95 2.127,0.011 4.038,0.529 5.728,1.555 1.688,1.024 3.448,2.413 5.279,4.164 1.638,1.461 3.011,2.557 4.123,3.289 1.107,0.732 2.291,1.101 3.551,1.108 2.225,0.011 4.02,-0.802 5.384,-2.441 1.364,-1.639 2.149,-3.861 2.358,-6.669l4.792 0.024c-0.217,4.261 -1.42,7.69 -3.611,10.293 -2.191,2.601 -5.029,3.896 -8.513,3.877 -2.131,-0.01 -4.042,-0.528 -5.729,-1.554zm8.008 81.142c4.42,-2.882 7.755,-7.076 10.011,-12.582l0.074 -14.231 -25.847 -0.132c-7.455,-0.038 -12.858,1.292 -16.212,3.983 -3.353,2.694 -5.042,6.414 -5.066,11.157 -0.025,4.936 1.792,8.844 5.458,11.716 3.663,2.876 8.836,4.33 15.515,4.363 6.292,0.033 11.647,-1.392 16.067,-4.274zm9.96 -59.414c5.008,4.818 7.491,11.873 7.443,21.167l-0.245 48.064 -6.97 -0.036 0.069 -13.504c-2.444,4.442 -5.994,7.883 -10.653,10.328 -4.659,2.445 -10.233,3.651 -16.718,3.618 -8.422,-0.043 -15.069,-2.06 -19.935,-6.056 -4.87,-3.993 -7.286,-9.232 -7.253,-15.719 0.032,-6.292 2.309,-11.388 6.83,-15.286 4.522,-3.898 11.719,-5.821 21.594,-5.771l25.991 0.133 0.031 -6.098c0.036,-7.066 -1.849,-12.449 -5.653,-16.148 -3.807,-3.698 -9.387,-5.566 -16.743,-5.603 -5.035,-0.027 -9.856,0.82 -14.461,2.539 -4.608,1.72 -8.516,4.023 -11.726,6.911l-3.603 -5.246c3.793,-3.368 8.356,-5.984 13.69,-7.845 5.333,-1.86 10.905,-2.775 16.713,-2.745 9.389,0.047 16.589,2.479 21.599,7.297z"/>
      <path class="fil6 str0" d="M126.638 -231.809c-1.689,-1.026 -3.45,-2.414 -5.278,-4.166 -1.64,-1.46 -3.014,-2.556 -4.122,-3.288 -1.11,-0.731 -2.295,-1.1 -3.553,-1.107 -2.227,-0.011 -4.021,0.828 -5.384,2.514 -1.366,1.687 -2.152,3.981 -2.359,6.885l-4.792 -0.025c0.215,-4.355 1.394,-7.856 3.539,-10.509 2.141,-2.65 5.005,-3.968 8.587,-3.95 2.127,0.011 4.038,0.529 5.728,1.555 1.688,1.024 3.448,2.413 5.279,4.164 1.638,1.461 3.011,2.557 4.123,3.289 1.107,0.732 2.291,1.101 3.551,1.108 2.225,0.011 4.02,-0.802 5.384,-2.441 1.364,-1.639 2.149,-3.861 2.358,-6.669l4.792 0.024c-0.217,4.261 -1.42,7.69 -3.611,10.293 -2.191,2.601 -5.029,3.896 -8.513,3.877 -2.131,-0.01 -4.042,-0.528 -5.729,-1.554zm8.008 81.142c4.42,-2.882 7.755,-7.076 10.011,-12.582l0.074 -14.231 -25.847 -0.132c-7.455,-0.038 -12.858,1.292 -16.212,3.983 -3.353,2.694 -5.042,6.414 -5.066,11.157 -0.025,4.936 1.792,8.844 5.458,11.716 3.663,2.876 8.836,4.33 15.515,4.363 6.292,0.033 11.647,-1.392 16.067,-4.274zm9.96 -59.414c5.008,4.818 7.491,11.873 7.443,21.167l-0.245 48.064 -6.97 -0.036 0.069 -13.504c-2.444,4.442 -5.994,7.883 -10.653,10.328 -4.659,2.445 -10.233,3.651 -16.718,3.618 -8.422,-0.043 -15.069,-2.06 -19.935,-6.056 -4.87,-3.993 -7.286,-9.232 -7.253,-15.719 0.032,-6.292 2.309,-11.388 6.83,-15.286 4.522,-3.898 11.719,-5.821 21.594,-5.771l25.991 0.133 0.031 -6.098c0.036,-7.066 -1.849,-12.449 -5.653,-16.148 -3.807,-3.698 -9.387,-5.566 -16.743,-5.603 -5.035,-0.027 -9.856,0.82 -14.461,2.539 -4.608,1.72 -8.516,4.023 -11.726,6.911l-3.603 -5.246c3.793,-3.368 8.356,-5.984 13.69,-7.845 5.333,-1.86 10.905,-2.775 16.713,-2.745 9.389,0.047 16.589,2.479 21.599,7.297z"/>
      <path class="fil5" d="M227.144 -150.485c4.61,-2.686 8.26,-6.444 10.948,-11.271 2.686,-4.826 4.046,-10.338 4.078,-16.534 0.032,-6.193 -1.272,-11.718 -3.909,-16.574 -2.639,-4.853 -6.25,-8.647 -10.833,-11.382 -4.585,-2.732 -9.781,-4.115 -15.59,-4.145 -5.807,-0.03 -11.019,1.301 -15.629,3.986 -4.613,2.688 -8.262,6.446 -10.949,11.271 -2.687,4.829 -4.046,10.339 -4.077,16.533 -0.032,6.197 1.27,11.721 3.909,16.574 2.636,4.856 6.247,8.65 10.832,11.383 4.583,2.734 9.78,4.115 15.589,4.145 5.808,0.029 11.018,-1.299 15.631,-3.986zm-35.024 5.484c-5.744,-3.318 -10.247,-7.916 -13.508,-13.791 -3.262,-5.873 -4.873,-12.488 -4.835,-19.847 0.038,-7.355 1.716,-13.954 5.038,-19.795 3.321,-5.84 7.87,-10.39 13.647,-13.653 5.775,-3.262 12.245,-4.875 19.41,-4.838 7.163,0.037 13.616,1.716 19.36,5.036 5.742,3.321 10.245,7.918 13.507,13.791 3.26,5.875 4.874,12.49 4.837,19.846 -0.038,7.358 -1.72,13.957 -5.039,19.796 -3.322,5.842 -7.872,10.393 -13.647,13.653 -5.777,3.262 -12.248,4.875 -19.411,4.838 -7.165,-0.037 -13.617,-1.715 -19.359,-5.036z"/>
      <path class="fil6 str0" d="M227.144 -150.485c4.61,-2.686 8.26,-6.444 10.948,-11.271 2.686,-4.826 4.046,-10.338 4.078,-16.534 0.032,-6.193 -1.272,-11.718 -3.909,-16.574 -2.639,-4.853 -6.25,-8.647 -10.833,-11.382 -4.585,-2.732 -9.781,-4.115 -15.59,-4.145 -5.807,-0.03 -11.019,1.301 -15.629,3.986 -4.613,2.688 -8.262,6.446 -10.949,11.271 -2.687,4.829 -4.046,10.339 -4.077,16.533 -0.032,6.197 1.27,11.721 3.909,16.574 2.636,4.856 6.247,8.65 10.832,11.383 4.583,2.734 9.78,4.115 15.589,4.145 5.808,0.029 11.018,-1.299 15.631,-3.986zm-35.024 5.484c-5.744,-3.318 -10.247,-7.916 -13.508,-13.791 -3.262,-5.873 -4.873,-12.488 -4.835,-19.847 0.038,-7.355 1.716,-13.954 5.038,-19.795 3.321,-5.84 7.87,-10.39 13.647,-13.653 5.775,-3.262 12.245,-4.875 19.41,-4.838 7.163,0.037 13.616,1.716 19.36,5.036 5.742,3.321 10.245,7.918 13.507,13.791 3.26,5.875 4.874,12.49 4.837,19.846 -0.038,7.358 -1.72,13.957 -5.039,19.796 -3.322,5.842 -7.872,10.393 -13.647,13.653 -5.777,3.262 -12.248,4.875 -19.411,4.838 -7.165,-0.037 -13.617,-1.715 -19.359,-5.036z"/>
     </g>
    </g>
    <g id="_2011645945264">
     <g>
      <path class="fil8" d="M111.621 26.752l-0.331 0c-7.569,0.004 -15.78,0.292 -23.786,1.663l0 0c-14.682,2.514 -25.876,7.745 -34.219,15.993l0 0c-5.374,5.312 -9.507,11.913 -12.285,19.619l0 0c-2.963,8.217 -4.465,17.937 -4.465,28.888l0 0c0,1.433 0.57,2.806 1.584,3.818l0 0c1.011,1.009 2.381,1.575 3.809,1.575l0 0 0.012 0 31.045 -0.07c-1.442,1.002 -2.993,1.988 -4.654,2.956l0 0c-13.857,8.084 -23.662,14.677 -29.717,22.557l0 0c-5.946,7.738 -8.371,16.427 -8.371,29.993l0 0c0,2.972 2.405,5.384 5.376,5.393l0 0c0.646,0.002 64.701,0.199 78.392,0.199l0 0c6.484,0 11.917,-2.668 16.149,-7.931l0 0c0.513,-0.638 1.001,-1.303 1.467,-1.992l0 0 0 4.526c0,2.978 2.415,5.392 5.393,5.392l0 0 49.196 0 0.032 0c9.544,0 18.487,-3.761 25.182,-10.593l0 0c6.642,-6.777 10.304,-15.781 10.313,-25.352l0 0c0.014,-15.767 -9.663,-30.288 -23.46,-35.048l0 0c17.119,-10.189 17.119,-31.228 10.643,-42.763l0 0c-1.999,-3.56 -4.508,-6.842 -7.553,-9.561l0 0c-3.038,-2.726 -6.562,-4.917 -10.357,-6.443l0 0c-6.765,-2.721 -13.814,-2.713 -20.944,-2.706l0 0c-0.922,0.001 -1.846,0.002 -2.769,-0.003l0 0 -44.992 0c-3.33,-0.038 -6.93,-0.108 -10.69,-0.11zm42.284 10.366c4.172,-0.036 8.342,-0.071 12.506,0.035l0 0c9.629,0.247 16.596,0.676 24.629,6.115l0 0c7.292,4.937 12.631,13.388 11.454,21.757l0 0c-1.569,11.165 -5.288,14.027 -11.564,19.337l0 0c-3.476,2.312 -7.34,4.131 -11.438,5.01l0 0c-0.017,0.003 -0.034,0.007 -0.051,0.01l0 0c-0.968,0.209 -0.952,1.603 0.022,1.779l0 0c8.998,1.621 18,5.297 23.901,12.264l0 0c4.661,5.504 7.6,12.696 7.593,19.951l0 0c-0.005,6.735 -2.573,13.062 -7.231,17.813l0 0c-4.649,4.745 -10.855,7.357 -17.483,7.357l0 0 -0.022 0c0,0 -44.808,0 -44.808,-0.001l0 0c0,-4.089 1.77,-26.554 1.77,-36.482l0 0c0,-4.595 0.231,-6.695 0.231,-9.465l0 0c0,-1.636 -1.297,-2.253 -1.806,-0.698l0 0c-0.715,2.183 -1.707,5.472 -3.042,10.394l0 0c-7.388,27.243 -12.467,36.257 -24.555,36.257l0 0c-11.286,0 -56.876,-0.135 -72.822,-0.183l0 0c0.516,-7.978 2.325,-13.292 5.978,-18.046l0 0c4.981,-6.482 13.87,-12.386 26.599,-19.811l0 0c10.601,-6.184 17.526,-13.006 21.169,-20.858l0 0c3.143,-6.77 5.91,-15.95 2.937,-23.219l0 0c-2.999,-7.334 -10.169,-12.383 -18.104,-12.565l0 0c-1.986,-0.045 -3.98,0.209 -5.886,0.772l0 0c-1.31,0.387 -0.835,0.911 0.502,0.629l0 0c4.279,-0.901 9.955,0.004 12.83,3.56l0 0c3.156,3.907 1.518,8.967 0.481,13.325l0 0c-0.997,4.188 -1.979,8.38 -3.037,12.553l0 0c-0.047,0.186 -0.562,2.72 -0.757,2.72l0 0c-0.001,0 -36.441,0.082 -36.441,0.082l0 0c0.396,-7.474 1.63,-14.124 3.686,-19.825l0 0c2.229,-6.182 5.5,-11.433 9.722,-15.607l0 0c7.91,-7.819 18.807,-11.479 29.573,-13.202l0 0c10.882,-1.742 23.226,-2.987 32.026,5.041l0 0c7.964,7.267 8.788,17.851 6.997,27.885l0 0c-3.109,17.421 -14.452,36.731 -31.629,43.38l0 0 -0.041 0.015c-1.161,0.449 -1.867,1.71 -1.539,2.999l0 0c0.324,1.277 1.625,2.061 2.927,1.862l0 0c16.477,-2.524 26.221,-15.984 33.719,-30.085l0 0c2.571,-4.834 4.632,-9.979 6.024,-15.403l0 0c0.694,-2.713 1.216,-5.497 1.524,-8.348l0 0c0.972,-8.988 -0.325,-18.729 -5.514,-26.33l0 0c-0.643,-0.948 -1.347,-1.866 -2.101,-2.739l0 0 14.601 0c0.07,0.001 0.14,0.001 0.21,0.001l0 0c2.087,0 4.174,-0.018 6.26,-0.036l0 0z"/>
      <path class="fil9" d="M173.892 113.862l-3.223 0.001c-1.029,0 -1.861,0.833 -1.861,1.861l0 11.693c0,1.028 0.834,1.861 1.861,1.861l0 0 3.224 0c4.238,0 7.707,-3.469 7.706,-7.708l0 0c0,-4.239 -3.468,-7.707 -7.706,-7.708l0 0c0,0 0,0 -0.001,0l0 0z"/>
      <path class="fil10" d="M170.858 58.733l-2.704 0c-0.863,0 -1.561,0.699 -1.561,1.561l0 9.806c0,0.863 0.698,1.562 1.561,1.562l0 0 2.704 0c3.555,0 6.464,-2.909 6.464,-6.465l0 0c0,-3.555 -2.909,-6.464 -6.464,-6.464z"/>
     </g>
     <polygon class="fil4" points="250.436,123.764 250.436,55.292 246.539,55.292 246.539,123.764 "/>
     <g>
      <polygon class="fil5" points="352.764,132.974 352.73,139.654 282.595,139.296 283.113,37.65 351.07,37.996 351.036,44.676 290.484,44.367 290.28,84.445 344.443,84.72 344.409,91.256 290.247,90.979 290.034,132.654 "/>
      <polygon class="fil6 str0" points="352.764,132.974 352.73,139.654 282.595,139.296 283.113,37.65 351.07,37.996 351.036,44.676 290.484,44.367 290.28,84.445 344.443,84.72 344.409,91.256 290.247,90.979 290.034,132.654 "/>
      <path class="fil5" d="M421.393 129.984c4.609,-2.685 8.26,-6.443 10.948,-11.27 2.686,-4.827 4.046,-10.338 4.078,-16.534 0.031,-6.194 -1.272,-11.718 -3.909,-16.574 -2.639,-4.853 -6.25,-8.647 -10.833,-11.382 -4.586,-2.732 -9.781,-4.115 -15.59,-4.145 -5.807,-0.03 -11.02,1.3 -15.63,3.986 -4.612,2.688 -8.262,6.445 -10.948,11.271 -2.687,4.828 -4.046,10.339 -4.077,16.533 -0.032,6.196 1.27,11.721 3.908,16.575 2.637,4.854 6.248,8.649 10.833,11.381 4.583,2.735 9.78,4.116 15.589,4.146 5.808,0.03 11.018,-1.298 15.631,-3.987zm22.642 -97.612l-0.549 107.745 -7.115 -0.037 0.09 -17.86c-3.032,5.89 -7.265,10.418 -12.702,13.585 -5.44,3.168 -11.594,4.733 -18.466,4.698 -7.069,-0.037 -13.448,-1.714 -19.142,-5.034 -5.697,-3.319 -10.15,-7.895 -13.362,-13.719 -3.215,-5.825 -4.802,-12.464 -4.763,-19.919 0.038,-7.454 1.692,-14.099 4.967,-19.941 3.272,-5.839 7.771,-10.365 13.501,-13.581 5.726,-3.213 12.124,-4.803 19.191,-4.766 6.775,0.034 12.843,1.662 18.199,4.884 5.357,3.222 9.569,7.697 12.638,13.424l0.253 -49.517 7.26 0.038z"/>
      <path class="fil6 str0" d="M421.393 129.984c4.609,-2.685 8.26,-6.443 10.948,-11.27 2.686,-4.827 4.046,-10.338 4.078,-16.534 0.031,-6.194 -1.272,-11.718 -3.909,-16.574 -2.639,-4.853 -6.25,-8.647 -10.833,-11.382 -4.586,-2.732 -9.781,-4.115 -15.59,-4.145 -5.807,-0.03 -11.02,1.3 -15.63,3.986 -4.612,2.688 -8.262,6.445 -10.948,11.271 -2.687,4.828 -4.046,10.339 -4.077,16.533 -0.032,6.196 1.27,11.721 3.908,16.575 2.637,4.854 6.248,8.649 10.833,11.381 4.583,2.735 9.78,4.116 15.589,4.146 5.808,0.03 11.018,-1.298 15.631,-3.987zm22.642 -97.612l-0.549 107.745 -7.115 -0.037 0.09 -17.86c-3.032,5.89 -7.265,10.418 -12.702,13.585 -5.44,3.168 -11.594,4.733 -18.466,4.698 -7.069,-0.037 -13.448,-1.714 -19.142,-5.034 -5.697,-3.319 -10.15,-7.895 -13.362,-13.719 -3.215,-5.825 -4.802,-12.464 -4.763,-19.919 0.038,-7.454 1.692,-14.099 4.967,-19.941 3.272,-5.839 7.771,-10.365 13.501,-13.581 5.726,-3.213 12.124,-4.803 19.191,-4.766 6.775,0.034 12.843,1.662 18.199,4.884 5.357,3.222 9.569,7.697 12.638,13.424l0.253 -49.517 7.26 0.038z"/>
      <path class="fil5" d="M540.868 64.813l-0.386 75.799 -6.97 -0.036 0.083 -16.264c-2.546,5.313 -6.293,9.432 -11.246,12.359 -4.95,2.928 -10.767,4.374 -17.446,4.339 -9.875,-0.05 -17.607,-2.848 -23.191,-8.394 -5.588,-5.547 -8.354,-13.499 -8.301,-23.858l0.226 -44.289 7.261 0.038 -0.223 43.708c-0.044,8.519 2.102,15.017 6.435,19.49 4.333,4.477 10.468,6.734 18.407,6.775 8.517,0.043 15.284,-2.585 20.297,-7.884 5.012,-5.297 7.542,-12.45 7.588,-21.453l0.206 -40.368 7.26 0.038z"/>
      <path class="fil6 str0" d="M540.868 64.813l-0.386 75.799 -6.97 -0.036 0.083 -16.264c-2.546,5.313 -6.293,9.432 -11.246,12.359 -4.95,2.928 -10.767,4.374 -17.446,4.339 -9.875,-0.05 -17.607,-2.848 -23.191,-8.394 -5.588,-5.547 -8.354,-13.499 -8.301,-23.858l0.226 -44.289 7.261 0.038 -0.223 43.708c-0.044,8.519 2.102,15.017 6.435,19.49 4.333,4.477 10.468,6.734 18.407,6.775 8.517,0.043 15.284,-2.585 20.297,-7.884 5.012,-5.297 7.542,-12.45 7.588,-21.453l0.206 -40.368 7.26 0.038z"/>
      <path class="fil5" d="M581.596 136.464c-5.792,-3.319 -10.319,-7.917 -13.58,-13.791 -3.262,-5.873 -4.873,-12.489 -4.835,-19.847 0.037,-7.453 1.716,-14.099 5.039,-19.941 3.32,-5.839 7.894,-10.365 13.719,-13.579 5.824,-3.212 12.414,-4.802 19.772,-4.763 6.099,0.03 11.634,1.245 16.609,3.641 4.973,2.399 8.996,5.88 12.071,10.445l-5.391 3.893c-2.693,-3.789 -6.043,-6.638 -10.051,-8.546 -4.007,-1.909 -8.432,-2.875 -13.271,-2.9 -5.905,-0.03 -11.213,1.275 -15.92,3.913 -4.711,2.639 -8.407,6.37 -11.093,11.198 -2.688,4.827 -4.047,10.385 -4.079,16.677 -0.032,6.294 1.27,11.866 3.908,16.72 2.638,4.855 6.295,8.624 10.979,11.31 4.68,2.688 9.973,4.044 15.879,4.075 4.839,0.024 9.274,-0.897 13.301,-2.765 4.026,-1.868 7.404,-4.682 10.136,-8.444l5.352 3.948c-3.123,4.537 -7.18,7.977 -12.177,10.322 -5,2.347 -10.547,3.503 -16.645,3.472 -7.358,-0.037 -13.931,-1.715 -19.723,-5.038z"/>
      <path class="fil6 str0" d="M581.596 136.464c-5.792,-3.319 -10.319,-7.917 -13.58,-13.791 -3.262,-5.873 -4.873,-12.489 -4.835,-19.847 0.037,-7.453 1.716,-14.099 5.039,-19.941 3.32,-5.839 7.894,-10.365 13.719,-13.579 5.824,-3.212 12.414,-4.802 19.772,-4.763 6.099,0.03 11.634,1.245 16.609,3.641 4.973,2.399 8.996,5.88 12.071,10.445l-5.391 3.893c-2.693,-3.789 -6.043,-6.638 -10.051,-8.546 -4.007,-1.909 -8.432,-2.875 -13.271,-2.9 -5.905,-0.03 -11.213,1.275 -15.92,3.913 -4.711,2.639 -8.407,6.37 -11.093,11.198 -2.688,4.827 -4.047,10.385 -4.079,16.677 -0.032,6.294 1.27,11.866 3.908,16.72 2.638,4.855 6.295,8.624 10.979,11.31 4.68,2.688 9.973,4.044 15.879,4.075 4.839,0.024 9.274,-0.897 13.301,-2.765 4.026,-1.868 7.404,-4.682 10.136,-8.444l5.352 3.948c-3.123,4.537 -7.18,7.977 -12.177,10.322 -5,2.347 -10.547,3.503 -16.645,3.472 -7.358,-0.037 -13.931,-1.715 -19.723,-5.038z"/>
      <path class="fil5" d="M689.439 131.642c4.419,-2.882 7.755,-7.076 10.011,-12.583l0.073 -14.231 -25.847 -0.131c-7.455,-0.039 -12.858,1.291 -16.212,3.983 -3.353,2.694 -5.042,6.414 -5.065,11.156 -0.025,4.937 1.792,8.844 5.457,11.717 3.663,2.876 8.836,4.329 15.515,4.363 6.292,0.033 11.647,-1.393 16.068,-4.274zm9.96 -59.414c5.008,4.818 7.49,11.873 7.443,21.166l-0.245 48.065 -6.97 -0.036 0.068 -13.505c-2.444,4.442 -5.993,7.884 -10.652,10.329 -4.66,2.444 -10.234,3.651 -16.719,3.617 -8.422,-0.042 -15.069,-2.059 -19.935,-6.055 -4.869,-3.993 -7.286,-9.233 -7.253,-15.72 0.033,-6.291 2.309,-11.388 6.83,-15.285 4.522,-3.898 11.719,-5.822 21.593,-5.771l25.992 0.132 0.032 -6.098c0.036,-7.066 -1.85,-12.448 -5.653,-16.147 -3.807,-3.698 -9.388,-5.566 -16.744,-5.604 -5.034,-0.025 -9.857,0.821 -14.462,2.54 -4.608,1.719 -8.514,4.023 -11.725,6.911l-3.603 -5.246c3.793,-3.369 8.356,-5.984 13.689,-7.844 5.333,-1.862 10.906,-2.776 16.715,-2.747 9.387,0.048 16.588,2.48 21.599,7.298z"/>
      <path class="fil6 str0" d="M689.439 131.642c4.419,-2.882 7.755,-7.076 10.011,-12.583l0.073 -14.231 -25.847 -0.131c-7.455,-0.039 -12.858,1.291 -16.212,3.983 -3.353,2.694 -5.042,6.414 -5.065,11.156 -0.025,4.937 1.792,8.844 5.457,11.717 3.663,2.876 8.836,4.329 15.515,4.363 6.292,0.033 11.647,-1.393 16.068,-4.274zm9.96 -59.414c5.008,4.818 7.49,11.873 7.443,21.166l-0.245 48.065 -6.97 -0.036 0.068 -13.505c-2.444,4.442 -5.993,7.884 -10.652,10.329 -4.66,2.444 -10.234,3.651 -16.719,3.617 -8.422,-0.042 -15.069,-2.059 -19.935,-6.055 -4.869,-3.993 -7.286,-9.233 -7.253,-15.72 0.033,-6.291 2.309,-11.388 6.83,-15.285 4.522,-3.898 11.719,-5.822 21.593,-5.771l25.992 0.132 0.032 -6.098c0.036,-7.066 -1.85,-12.448 -5.653,-16.147 -3.807,-3.698 -9.388,-5.566 -16.744,-5.604 -5.034,-0.025 -9.857,0.821 -14.462,2.54 -4.608,1.719 -8.514,4.023 -11.725,6.911l-3.603 -5.246c3.793,-3.369 8.356,-5.984 13.689,-7.844 5.333,-1.862 10.906,-2.776 16.715,-2.747 9.387,0.048 16.588,2.48 21.599,7.298z"/>
      <path class="fil5" d="M749.579 169.558l2.053 -4.055c2.603,2.047 5.743,3.078 9.423,3.097 2.904,0.015 5.231,-0.651 6.981,-1.997 1.748,-1.348 2.63,-3.232 2.643,-5.649 0.011,-2.229 -0.804,-4.022 -2.442,-5.386 -1.64,-1.365 -4.008,-2.053 -7.106,-2.069l-2.903 -0.015 3.404 -12.617 4.792 0.025 -2.368 8.701c3.869,0.31 6.89,1.51 9.058,3.604 2.167,2.092 3.243,4.784 3.226,8.076 -0.019,3.677 -1.464,6.599 -4.328,8.763 -2.868,2.163 -6.529,3.234 -10.98,3.211 -4.552,-0.023 -8.369,-1.254 -11.453,-3.689zm-2.595 -32.25c-5.792,-3.319 -10.32,-7.917 -13.58,-13.792 -3.262,-5.872 -4.873,-12.488 -4.836,-19.846 0.038,-7.453 1.717,-14.099 5.039,-19.941 3.32,-5.839 7.894,-10.365 13.719,-13.58 5.825,-3.212 12.415,-4.801 19.773,-4.764 6.099,0.031 11.634,1.246 16.609,3.643 4.972,2.398 8.995,5.878 12.071,10.444l-5.392 3.894c-2.693,-3.79 -6.042,-6.639 -10.049,-8.547 -4.008,-1.908 -8.433,-2.875 -13.272,-2.899 -5.906,-0.03 -11.212,1.274 -15.921,3.912 -4.71,2.639 -8.407,6.371 -11.093,11.198 -2.688,4.827 -4.046,10.386 -4.078,16.678 -0.033,6.294 1.269,11.866 3.907,16.719 2.637,4.855 6.296,8.625 10.979,11.31 4.682,2.688 9.974,4.045 15.88,4.075 4.839,0.025 9.274,-0.897 13.301,-2.765 4.026,-1.867 7.404,-4.681 10.135,-8.443l5.353 3.948c-3.123,4.536 -7.181,7.976 -12.177,10.322 -4.999,2.347 -10.546,3.503 -16.645,3.471 -7.358,-0.037 -13.932,-1.715 -19.723,-5.037z"/>
      <path class="fil6 str0" d="M749.579 169.558l2.053 -4.055c2.603,2.047 5.743,3.078 9.423,3.097 2.904,0.015 5.231,-0.651 6.981,-1.997 1.748,-1.348 2.63,-3.232 2.643,-5.649 0.011,-2.229 -0.804,-4.022 -2.442,-5.386 -1.64,-1.365 -4.008,-2.053 -7.106,-2.069l-2.903 -0.015 3.404 -12.617 4.792 0.025 -2.368 8.701c3.869,0.31 6.89,1.51 9.058,3.604 2.167,2.092 3.243,4.784 3.226,8.076 -0.019,3.677 -1.464,6.599 -4.328,8.763 -2.868,2.163 -6.529,3.234 -10.98,3.211 -4.552,-0.023 -8.369,-1.254 -11.453,-3.689zm-2.595 -32.25c-5.792,-3.319 -10.32,-7.917 -13.58,-13.792 -3.262,-5.872 -4.873,-12.488 -4.836,-19.846 0.038,-7.453 1.717,-14.099 5.039,-19.941 3.32,-5.839 7.894,-10.365 13.719,-13.58 5.825,-3.212 12.415,-4.801 19.773,-4.764 6.099,0.031 11.634,1.246 16.609,3.643 4.972,2.398 8.995,5.878 12.071,10.444l-5.392 3.894c-2.693,-3.79 -6.042,-6.639 -10.049,-8.547 -4.008,-1.908 -8.433,-2.875 -13.272,-2.899 -5.906,-0.03 -11.212,1.274 -15.921,3.912 -4.71,2.639 -8.407,6.371 -11.093,11.198 -2.688,4.827 -4.046,10.386 -4.078,16.678 -0.033,6.294 1.269,11.866 3.907,16.719 2.637,4.855 6.296,8.625 10.979,11.31 4.682,2.688 9.974,4.045 15.88,4.075 4.839,0.025 9.274,-0.897 13.301,-2.765 4.026,-1.867 7.404,-4.681 10.135,-8.443l5.353 3.948c-3.123,4.536 -7.181,7.976 -12.177,10.322 -4.999,2.347 -10.546,3.503 -16.645,3.471 -7.358,-0.037 -13.932,-1.715 -19.723,-5.037z"/>
      <path class="fil5" d="M846.818 51.343c-1.689,-1.025 -3.45,-2.414 -5.278,-4.165 -1.64,-1.461 -3.014,-2.557 -4.122,-3.289 -1.111,-0.731 -2.295,-1.1 -3.553,-1.107 -2.228,-0.011 -4.021,0.828 -5.385,2.514 -1.366,1.687 -2.151,3.982 -2.358,6.885l-4.792 -0.025c0.215,-4.354 1.394,-7.856 3.539,-10.509 2.141,-2.65 5.005,-3.968 8.587,-3.95 2.127,0.011 4.038,0.53 5.728,1.555 1.688,1.024 3.448,2.413 5.279,4.165 1.638,1.46 3.011,2.556 4.123,3.288 1.107,0.732 2.291,1.102 3.55,1.108 2.226,0.011 4.02,-0.802 5.385,-2.441 1.363,-1.639 2.149,-3.861 2.358,-6.668l4.792 0.023c-0.217,4.261 -1.42,7.69 -3.611,10.293 -2.191,2.602 -5.029,3.896 -8.513,3.877 -2.131,-0.01 -4.042,-0.528 -5.729,-1.554zm8.008 81.142c4.419,-2.882 7.755,-7.076 10.011,-12.582l0.074 -14.231 -25.847 -0.132c-7.455,-0.038 -12.858,1.292 -16.212,3.984 -3.353,2.694 -5.042,6.413 -5.066,11.156 -0.025,4.936 1.792,8.844 5.458,11.716 3.663,2.876 8.836,4.33 15.515,4.363 6.292,0.033 11.647,-1.392 16.067,-4.274zm9.96 -59.413c5.008,4.817 7.491,11.873 7.443,21.166l-0.245 48.064 -6.97 -0.036 0.069 -13.503c-2.444,4.441 -5.994,7.882 -10.653,10.327 -4.659,2.445 -10.233,3.651 -16.718,3.618 -8.422,-0.043 -15.069,-2.06 -19.935,-6.056 -4.871,-3.992 -7.286,-9.232 -7.254,-15.719 0.033,-6.292 2.309,-11.388 6.831,-15.286 4.522,-3.898 11.719,-5.821 21.593,-5.771l25.992 0.133 0.031 -6.098c0.036,-7.066 -1.849,-12.449 -5.653,-16.148 -3.807,-3.697 -9.387,-5.566 -16.743,-5.603 -5.035,-0.027 -9.856,0.82 -14.461,2.539 -4.608,1.72 -8.516,4.023 -11.726,6.911l-3.603 -5.245c3.793,-3.369 8.355,-5.985 13.69,-7.846 5.333,-1.86 10.905,-2.775 16.713,-2.745 9.389,0.048 16.589,2.479 21.599,7.298z"/>
      <path class="fil6 str0" d="M846.818 51.343c-1.689,-1.025 -3.45,-2.414 -5.278,-4.165 -1.64,-1.461 -3.014,-2.557 -4.122,-3.289 -1.111,-0.731 -2.295,-1.1 -3.553,-1.107 -2.228,-0.011 -4.021,0.828 -5.385,2.514 -1.366,1.687 -2.151,3.982 -2.358,6.885l-4.792 -0.025c0.215,-4.354 1.394,-7.856 3.539,-10.509 2.141,-2.65 5.005,-3.968 8.587,-3.95 2.127,0.011 4.038,0.53 5.728,1.555 1.688,1.024 3.448,2.413 5.279,4.165 1.638,1.46 3.011,2.556 4.123,3.288 1.107,0.732 2.291,1.102 3.55,1.108 2.226,0.011 4.02,-0.802 5.385,-2.441 1.363,-1.639 2.149,-3.861 2.358,-6.668l4.792 0.023c-0.217,4.261 -1.42,7.69 -3.611,10.293 -2.191,2.602 -5.029,3.896 -8.513,3.877 -2.131,-0.01 -4.042,-0.528 -5.729,-1.554zm8.008 81.142c4.419,-2.882 7.755,-7.076 10.011,-12.582l0.074 -14.231 -25.847 -0.132c-7.455,-0.038 -12.858,1.292 -16.212,3.984 -3.353,2.694 -5.042,6.413 -5.066,11.156 -0.025,4.936 1.792,8.844 5.458,11.716 3.663,2.876 8.836,4.33 15.515,4.363 6.292,0.033 11.647,-1.392 16.067,-4.274zm9.96 -59.413c5.008,4.817 7.491,11.873 7.443,21.166l-0.245 48.064 -6.97 -0.036 0.069 -13.503c-2.444,4.441 -5.994,7.882 -10.653,10.327 -4.659,2.445 -10.233,3.651 -16.718,3.618 -8.422,-0.043 -15.069,-2.06 -19.935,-6.056 -4.871,-3.992 -7.286,-9.232 -7.254,-15.719 0.033,-6.292 2.309,-11.388 6.831,-15.286 4.522,-3.898 11.719,-5.821 21.593,-5.771l25.992 0.133 0.031 -6.098c0.036,-7.066 -1.849,-12.449 -5.653,-16.148 -3.807,-3.697 -9.387,-5.566 -16.743,-5.603 -5.035,-0.027 -9.856,0.82 -14.461,2.539 -4.608,1.72 -8.516,4.023 -11.726,6.911l-3.603 -5.245c3.793,-3.369 8.355,-5.985 13.69,-7.846 5.333,-1.86 10.905,-2.775 16.713,-2.745 9.389,0.048 16.589,2.479 21.599,7.298z"/>
      <path class="fil5" d="M947.324 132.667c4.61,-2.686 8.26,-6.444 10.948,-11.271 2.686,-4.826 4.046,-10.338 4.078,-16.534 0.032,-6.193 -1.272,-11.718 -3.909,-16.574 -2.639,-4.853 -6.25,-8.647 -10.833,-11.381 -4.586,-2.733 -9.781,-4.116 -15.59,-4.146 -5.807,-0.03 -11.019,1.301 -15.63,3.987 -4.612,2.687 -8.262,6.445 -10.948,11.27 -2.687,4.829 -4.046,10.339 -4.077,16.533 -0.032,6.197 1.27,11.721 3.909,16.574 2.636,4.856 6.247,8.65 10.832,11.383 4.583,2.734 9.78,4.115 15.589,4.145 5.808,0.029 11.018,-1.299 15.631,-3.986zm-35.024 5.485c-5.744,-3.319 -10.247,-7.917 -13.508,-13.792 -3.262,-5.873 -4.873,-12.488 -4.835,-19.847 0.038,-7.355 1.716,-13.954 5.038,-19.794 3.32,-5.841 7.87,-10.391 13.647,-13.654 5.775,-3.261 12.245,-4.875 19.41,-4.838 7.163,0.037 13.616,1.716 19.36,5.036 5.742,3.321 10.245,7.918 13.507,13.792 3.26,5.874 4.873,12.489 4.837,19.845 -0.038,7.358 -1.72,13.957 -5.039,19.796 -3.322,5.842 -7.872,10.393 -13.647,13.653 -5.777,3.262 -12.248,4.875 -19.411,4.838 -7.165,-0.037 -13.617,-1.715 -19.359,-5.035z"/>
      <path class="fil6 str0" d="M947.324 132.667c4.61,-2.686 8.26,-6.444 10.948,-11.271 2.686,-4.826 4.046,-10.338 4.078,-16.534 0.032,-6.193 -1.272,-11.718 -3.909,-16.574 -2.639,-4.853 -6.25,-8.647 -10.833,-11.381 -4.586,-2.733 -9.781,-4.116 -15.59,-4.146 -5.807,-0.03 -11.019,1.301 -15.63,3.987 -4.612,2.687 -8.262,6.445 -10.948,11.27 -2.687,4.829 -4.046,10.339 -4.077,16.533 -0.032,6.197 1.27,11.721 3.909,16.574 2.636,4.856 6.247,8.65 10.832,11.383 4.583,2.734 9.78,4.115 15.589,4.145 5.808,0.029 11.018,-1.299 15.631,-3.986zm-35.024 5.485c-5.744,-3.319 -10.247,-7.917 -13.508,-13.792 -3.262,-5.873 -4.873,-12.488 -4.835,-19.847 0.038,-7.355 1.716,-13.954 5.038,-19.794 3.32,-5.841 7.87,-10.391 13.647,-13.654 5.775,-3.261 12.245,-4.875 19.41,-4.838 7.163,0.037 13.616,1.716 19.36,5.036 5.742,3.321 10.245,7.918 13.507,13.792 3.26,5.874 4.873,12.489 4.837,19.845 -0.038,7.358 -1.72,13.957 -5.039,19.796 -3.322,5.842 -7.872,10.393 -13.647,13.653 -5.777,3.262 -12.248,4.875 -19.411,4.838 -7.165,-0.037 -13.617,-1.715 -19.359,-5.035z"/>
     </g>
    </g>
   </g>
  </g>
  <polygon class="fil0" points="0,0 1000,0 1000,200 0,200 "/>
 </g>
</svg>
