<?xml version="1.0" encoding="iso-8859-1"?>
<!-- Generator: Adobe Illustrator 19.1.0, SVG Export Plug-In . SVG Version: 6.00 Build 0)  -->
<svg version="1.1" id="Capa_1" xmlns="http://www.w3.org/2000/svg" xmlns:xlink="http://www.w3.org/1999/xlink" x="0px" y="0px"
	 viewBox="0 0 64 64" style="enable-background:new 0 0 64 64;" xml:space="preserve">
<g>
	<g>
		<path d="M64,1.382H54v4h-4v11h2v-9h2v45.236l5,10l5-10V1.382z M62,52.146l-3,6l-3-6V3.382h6V52.146z"/>
		<path d="M43,13.968L30.414,1.382H0v60h43V13.968z M31,4.796l8.586,8.586H31V4.796z M2,59.382v-56h27v12h12v44H2z"/>
		<rect x="8" y="11.382" width="12" height="2"/>
		<rect x="8" y="21.382" width="27" height="2"/>
		<rect x="8" y="29.382" width="27" height="2"/>
		<rect x="8" y="37.382" width="27" height="2"/>
		<rect x="8" y="45.382" width="27" height="2"/>
	</g>
</g>
<g>
</g>
<g>
</g>
<g>
</g>
<g>
</g>
<g>
</g>
<g>
</g>
<g>
</g>
<g>
</g>
<g>
</g>
<g>
</g>
<g>
</g>
<g>
</g>
<g>
</g>
<g>
</g>
<g>
</g>
</svg>
