<?xml version="1.0" encoding="iso-8859-1"?>
<!-- Generator: Adobe Illustrator 19.1.0, SVG Export Plug-In . SVG Version: 6.00 Build 0)  -->
<svg version="1.1" id="Capa_1" xmlns="http://www.w3.org/2000/svg" xmlns:xlink="http://www.w3.org/1999/xlink" x="0px" y="0px"
	 viewBox="0 0 64.414 64.414" style="enable-background:new 0 0 64.414 64.414;" fill="white" xml:space="preserve">
<g>
	<g>
		<path d="M0,64.414h64.414L0,0V64.414z M2,55.414h6v-2H2v-6h4v-2H2v-6h6v-2H2v-6h4v-2H2v-6h6v-2H2V4.828l57.586,57.586H2V55.414z"
			/>
		<path d="M13,28v27.414h27.414L13,28z M15,32.828l20.586,20.586H15V32.828z"/>
		<path d="M64.375,46.789l-2.472-9.886L25,0l-7.414,7.414l36.903,36.903L64.375,46.789z M61.625,44.039l-6.114-1.528L26.414,13.414
			L31,8.828l29.097,29.097L61.625,44.039z M25,2.828l4.586,4.586L25,12l-4.586-4.586L25,2.828z"/>
	</g>
</g>
<g>
</g>
<g>
</g>
<g>
</g>
<g>
</g>
<g>
</g>
<g>
</g>
<g>
</g>
<g>
</g>
<g>
</g>
<g>
</g>
<g>
</g>
<g>
</g>
<g>
</g>
<g>
</g>
<g>
</g>
</svg>
